<svg width="199" height="49" viewBox="0 0 199 49" fill="none" xmlns="http://www.w3.org/2000/svg">
<path d="M198.81 18.0058C198.915 19.0914 198.951 20.177 198.951 21.2626C198.951 21.858 198.457 22.2432 197.681 22.2782C196.482 22.3132 195.247 22.3483 194.048 22.3833C192.955 22.4183 192.955 22.4183 192.955 23.3288L192.814 30.1577C192.814 32.5391 192.814 34.9204 192.814 37.3018C192.814 37.6169 192.778 37.9321 192.708 38.2123C192.602 38.8426 192.143 39.2279 191.438 39.2979C190.204 39.438 188.969 39.543 187.735 39.5781C187.1 39.6131 186.782 39.403 186.712 38.8426C186.606 37.8621 186.536 36.8465 186.5 35.8659C186.359 31.5935 186.218 27.3211 186.077 23.0487C186.077 22.6985 185.83 22.6634 185.513 22.6284C184.49 22.6284 183.467 22.5934 182.409 22.5934C181.316 22.5584 180.822 22.3132 180.681 21.4027C180.504 20.3521 180.434 19.3015 180.469 18.2509C180.504 17.1653 181.139 16.7801 182.409 16.7451C183.679 16.7101 184.948 16.7101 186.218 16.7101C189.816 16.675 193.413 16.675 197.011 16.64C198.245 16.64 198.704 16.9552 198.81 18.0058Z" fill="#3885FC"/>
<path d="M178.501 19.4419C178.501 20.5291 178.432 21.6163 178.327 22.6684C178.223 23.51 177.703 24.001 176.905 24.0712C175.898 24.2114 174.857 24.2816 173.816 24.3517C173.539 24.3868 173.296 24.3868 173.018 24.3868C172.532 24.4569 172.012 24.4219 171.769 24.9479C171.422 25.5792 171.353 26.3507 171.596 27.0521C171.7 27.2625 171.908 27.4028 172.151 27.473C172.671 27.5431 173.192 27.5431 173.712 27.508C175.1 27.3678 175.69 27.7535 175.794 29.1563C175.864 30.2786 175.898 31.4359 175.829 32.5581C175.76 33.505 175.239 34.0311 174.302 34.2766C173.816 34.3818 173.365 34.4519 172.879 34.5221C172.081 34.6623 171.838 34.8728 171.769 35.6794C171.665 36.4509 171.665 37.2224 171.561 37.994C171.491 38.8006 171.006 39.2916 170.277 39.5371C169.028 39.9228 167.744 40.0281 166.46 39.8176C165.488 39.6774 164.933 39.011 164.725 38.0992C164.517 37.3978 164.413 36.6964 164.378 35.9599L164.135 30.5591C164.135 28.0692 164.1 25.6143 164.135 23.1243C164.135 21.9319 164.204 20.7044 164.378 19.5121C164.655 17.8287 165.627 16.8818 167.293 16.7415C169.062 16.6012 170.867 16.6363 172.671 16.6714C173.851 16.7065 175.031 16.7766 176.211 16.9519C177.703 17.1273 178.466 17.9339 178.501 19.4419Z" fill="#3885FC"/>
<path d="M161.745 34.7359C162.385 36.1468 162.35 36.6759 161.176 37.5577C160.181 38.3336 159.149 39.0038 158.083 39.6034C157.087 40.1678 156.447 39.8856 155.878 38.7922C155.807 38.6511 155.7 38.4747 155.665 38.2984C155.416 37.3813 154.847 37.1697 154.065 37.2402C152.5 37.346 150.936 37.346 149.335 37.4519C149.087 37.4871 148.802 37.734 148.624 37.9809C148.34 38.3689 148.127 38.7569 147.913 39.1802C147.629 39.7092 147.202 39.9561 146.633 39.9209C145.033 39.7798 143.575 39.1449 142.188 38.2631C141.762 37.9809 141.584 37.4871 141.619 36.9228C141.691 36.4995 141.762 36.041 141.904 35.6177C142.58 33.2545 143.255 30.8561 143.966 28.4929C144.891 25.3537 145.886 22.2145 146.846 19.0401C147.202 17.8408 147.913 17.0296 149.051 16.8885C150.296 16.7474 151.576 16.6769 152.82 16.6416C153.674 16.6063 154.349 17.1707 154.74 17.9466C155.38 19.1459 155.914 20.3451 156.376 21.5796C157.905 26.0944 159.896 30.3975 161.745 34.7359ZM151.682 30.8208C152.358 30.715 152.536 30.3975 152.322 29.6568C151.967 28.5281 151.576 27.3994 151.149 26.2707C151.078 26.0591 150.936 25.8475 150.829 25.6711C150.153 27.4347 149.869 29.1277 149.62 30.9619C150.367 30.8913 151.007 30.8913 151.682 30.8208Z" fill="#3885FC"/>
<path d="M134.751 31.3484C137.693 32.4429 139.69 35.1967 139.655 38.0565C139.655 39.3981 139.095 40.0689 137.623 40.2808C136.607 40.4573 135.592 40.5632 134.576 40.5985C133.77 40.6691 133.455 40.3867 133.279 39.6453C133.034 38.5861 132.859 37.5269 132.474 36.503C132.264 35.8675 131.738 35.338 131.318 34.7731C131.213 34.5965 130.862 34.4553 130.757 34.4906C130.547 34.5965 130.407 34.8084 130.372 35.0202C130.337 36.15 130.372 37.2445 130.372 38.3743C130.372 38.692 130.407 39.0451 130.372 39.3981C130.337 40.0336 129.916 40.4926 129.216 40.4926C127.71 40.4573 126.203 40.3514 124.732 40.1749C124.031 40.1042 123.751 39.5393 123.646 38.9391C123.576 38.5508 123.541 38.0918 123.576 37.6681C123.576 33.7845 123.576 29.8656 123.611 25.9819C123.611 24.0754 123.576 22.1336 123.611 20.2271C123.646 18.8501 124.452 17.8969 125.783 17.3673C128.41 16.3081 131.037 16.4494 133.595 17.5085C136.677 18.8148 138.604 21.0038 139.165 24.0754C139.655 26.688 138.744 28.877 135.627 30.0421C134.821 30.3598 133.98 30.5717 133.069 30.8188C133.665 31.0306 134.225 31.1719 134.751 31.3484ZM132.929 25.876C133.069 25.3817 132.859 24.8521 132.439 24.5697C132.088 24.3225 131.703 24.146 131.318 24.0048C130.232 23.687 129.916 23.9342 129.916 25.064C129.952 25.3817 129.987 25.8054 130.057 26.2291C130.057 26.4409 130.092 26.6527 130.162 26.8293C130.232 26.9705 130.337 27.0411 130.477 27.0764C130.897 27.0411 131.353 26.9705 131.808 26.8999C132.334 26.794 132.789 26.4056 132.929 25.876Z" fill="#3885FC"/>
<path d="M119.983 24.5789C118.811 26.2632 117.461 27.737 115.579 28.5792C115.508 28.6494 115.437 28.6845 115.366 28.7546C115.543 28.8248 115.65 28.9301 115.756 28.9652C118.029 30.053 119.13 31.9128 119.308 34.4392C119.379 35.6674 119.379 36.8605 119.308 38.0886C119.272 39.3168 118.846 39.8081 117.674 39.9484C116.609 40.0888 115.579 40.194 114.513 40.2642C113.554 40.2993 113.199 39.9484 113.022 38.9659C112.844 37.8781 112.666 36.7552 112.382 35.6674C112.276 35.1761 111.992 34.7551 111.743 34.2989L111.53 34.334C111.459 34.8954 111.352 35.4569 111.352 36.0183C111.317 36.8254 111.352 37.5974 111.317 38.4044C111.317 39.3519 110.891 39.8431 110.003 39.9133C108.724 40.0186 107.446 40.0537 106.167 40.0537C105.208 40.0537 104.747 39.5975 104.605 38.615C104.533 38.1939 104.498 37.7377 104.498 37.3166C104.462 32.79 104.498 28.2634 104.498 23.7367C104.533 22.0524 104.569 20.4032 104.605 18.7188C104.64 17.3854 104.96 16.9643 106.238 16.859C107.233 16.7889 108.263 16.7538 109.293 16.7538C110.5 16.7889 111.033 17.3152 111.068 18.5785C111.104 19.7364 110.997 20.9295 110.926 22.0875C110.891 22.7893 110.784 23.456 110.82 24.1227C110.82 24.7543 110.997 24.8245 111.53 24.614C112.347 24.2631 112.951 23.5964 113.27 22.7893C113.839 21.5611 114.016 20.2628 113.945 18.9294C113.839 17.2801 114.158 16.9292 115.721 16.859C116.928 16.7889 118.171 16.6836 119.379 16.6485C120.657 16.5783 121.119 16.9292 121.439 18.2276C121.936 20.5786 121.261 22.6489 119.983 24.5789Z" fill="#3885FC"/>
<path d="M50.1269 25.637C50.7607 28.5293 50.0565 31.1776 48.6481 33.6866C46.8523 36.9622 44.1059 38.7742 40.5848 39.4363L35.0215 39.9242C33.4017 39.7848 32.6271 38.9833 32.4511 37.2758C32.4158 36.788 32.3806 36.3001 32.3806 35.8123C32.3454 34.0002 32.3454 32.1882 32.3102 30.3761C32.275 27.3096 32.2398 24.2431 32.2398 21.1417C32.2046 20.5493 32.2046 19.9221 32.2398 19.2949C32.3102 18.2146 32.768 17.4131 33.7539 17.1692C34.8806 16.8904 36.0074 16.6813 37.1341 16.6465C39.6693 16.5768 42.1341 17.0647 44.4228 18.3191C47.3101 19.9221 49.3875 22.222 50.1269 25.637ZM41.2186 30.5852C42.3453 29.7838 42.627 28.5641 42.451 27.2399C42.2749 25.8112 41.5355 24.7658 40.3031 24.1037C39.7397 23.8249 39.5637 23.9295 39.5284 24.5916C39.458 26.2294 39.458 27.8672 39.4228 29.505C39.4228 30.0974 39.4228 30.6549 39.4228 31.4216C40.127 31.1079 40.7256 30.9337 41.2186 30.5852Z" fill="#3885FC"/>
<path d="M16.5005 24.5789C15.3285 26.2632 13.9789 27.737 12.0966 28.5792C12.0255 28.6494 11.9545 28.6845 11.8835 28.7546C12.0611 28.8248 12.1676 28.9301 12.2742 28.9652C14.5471 30.053 15.6481 31.9128 15.8257 34.4392C15.8967 35.6674 15.8967 36.8605 15.8257 38.0886C15.7902 39.3168 15.364 39.8081 14.192 39.9484C13.1265 40.0888 12.0966 40.194 11.0311 40.2642C10.0722 40.2993 9.71705 39.9484 9.53947 38.9659C9.36189 37.8781 9.18432 36.7552 8.90019 35.6674C8.79365 35.1761 8.50953 34.7551 8.26092 34.2989L8.04783 34.334C7.9768 34.8954 7.87025 35.4569 7.87025 36.0183C7.83473 36.8254 7.87025 37.5974 7.83473 38.4044C7.83473 39.3519 7.40855 39.8431 6.52067 39.9133C5.24211 40.0186 3.96356 40.0537 2.68501 40.0537C1.72609 40.0537 1.26439 39.5975 1.12233 38.615C1.0513 38.1939 1.01578 37.7377 1.01578 37.3166C0.980269 32.79 1.01578 28.2634 1.01578 23.7367C1.0513 22.0524 1.08682 20.4032 1.12233 18.7188C1.15785 17.3854 1.47748 16.9643 2.75604 16.859C3.75047 16.7889 4.78041 16.7538 5.81036 16.7538C7.01788 16.7889 7.55061 17.3152 7.58613 18.5785C7.62164 19.7364 7.5151 20.9295 7.44407 22.0875C7.40855 22.7893 7.302 23.456 7.33752 24.1227C7.33752 24.7543 7.5151 24.8245 8.04783 24.614C8.86468 24.2631 9.46844 23.5964 9.78808 22.7893C10.3563 21.5611 10.5339 20.2628 10.4629 18.9294C10.3563 17.2801 10.676 16.9292 12.2386 16.859C13.4462 16.7889 14.6892 16.6836 15.8967 16.6485C17.1753 16.5783 17.637 16.9292 17.9566 18.2276C18.4538 20.5786 17.779 22.6489 16.5005 24.5789Z" fill="#3885FC"/>
<path d="M26.4584 16.1505L25.8042 14.4336L25.5789 13.8415C25.5161 13.6768 25.4359 13.5402 25.3471 13.4351C25.2583 13.3299 25.1586 13.2599 25.0546 13.2178C24.916 13.1618 24.7709 13.1618 24.6322 13.2178C24.5282 13.2599 24.4286 13.3334 24.3398 13.4351C24.251 13.5402 24.1708 13.6733 24.108 13.8415L23.8827 14.4336L23.2285 16.1505L20.0896 24.3948L20.1645 40.4139C20.3891 40.4139 20.3891 40.4139 20.5662 40.4139C21.329 40.4139 20.9953 40.4139 21.7818 40.4139C21.8868 40.4139 22.288 40.4139 22.4253 40.4139C25.8555 40.3076 24.2081 40.3076 26.0053 40.3076H27.2034C27.5023 40.3076 27.6526 40.3076 28.0874 40.3076V25.1656H29.1164L29.123 40.3076C29.3816 40.3076 29.3816 40.3076 29.5996 40.3076L29.5929 24.3948L26.4584 16.1505Z" fill="#3885FC"/>
<path d="M26.4584 16.1499H24.355L21.5085 23.6234H20.9453L23.7917 16.1499H23.2307L20.0918 24.3942H29.5994L26.4584 16.1499Z" fill="#FC9A0A"/>
<path d="M25.5813 13.8408C25.5184 13.6761 25.4383 13.5394 25.3495 13.4343C25.4383 13.5394 25.5163 13.6761 25.5813 13.8408Z" fill="#FC9A0A"/>
<path d="M24.3422 13.4343C24.2534 13.5394 24.1732 13.6726 24.1104 13.8408C24.1732 13.6761 24.2534 13.5394 24.3422 13.4343Z" fill="#FC9A0A"/>
<path d="M24.3529 16.1499H23.7919L20.9454 23.6234H21.5087L24.3551 16.1499H24.3529Z" fill="#FC9A0A"/>
<path d="M24.3529 16.1521L25.0786 14.2496C25.0938 14.2111 25.1111 14.176 25.1262 14.148C25.0266 13.9763 24.901 13.9518 24.8468 13.9518C24.7818 13.9518 24.6193 13.9798 24.5175 14.2496L23.7918 16.1521H24.3529Z" fill="#3885FC"/>
<path d="M20.5666 25.2031V40.4132C21.0634 40.4132 20.9885 40.4132 21.6153 40.4132V25.2031H20.5666Z" fill="#3885FC"/>
<path d="M28.092 24.5559V40.3072C28.5516 40.3072 28.4767 40.3072 29.121 40.3072V24.5559H28.092Z" fill="#3885FC"/>
<path d="M106.047 20.3095C104.934 27.6666 103.896 34.9708 102.73 42.2523C102.588 43.4199 102.243 44.6176 101.845 45.7397C101.465 47.1301 100.109 48.0813 98.6042 48.012C97.1523 48.0184 95.7232 47.8962 94.317 47.6456C93.0501 47.3536 92.0141 46.5062 91.4942 45.3531C90.087 42.5176 88.7438 39.6934 87.412 36.805C85.9867 33.7012 84.6483 30.4802 83.2984 27.3235C83.2163 27.0438 83.0704 26.7527 82.767 26.2347C82.5495 27.4552 82.3778 28.4187 82.1946 29.4465C81.5078 33.3006 80.8209 37.1548 80.1455 40.9447C80.0425 41.5228 79.823 42.0139 79.6036 42.505C79.1076 43.8084 78.1278 44.4954 76.6463 44.2976C74.3863 44.0274 72.1902 43.7686 70.017 43.3813C67.7274 42.907 66.8125 41.7498 67.1264 39.6187C67.5366 36.5768 68.1271 33.6333 68.6537 30.6785C69.1851 27.3268 69.6411 24.028 70.2888 20.7634C71.2848 15.1749 72.3446 9.59772 73.4684 4.03198C73.56 3.51809 73.7155 3.01559 73.9874 2.60011C74.6342 1.19103 75.8057 0.538221 77.6593 0.868557C79.5243 1.13466 81.4304 1.54062 83.325 2.01082C84.528 2.29148 85.2215 3.21039 85.7005 4.22361C86.7584 6.79809 87.805 9.43681 88.9269 12.0227C90.0192 14.4045 91.1983 16.6691 92.366 18.9981C92.5759 19.3006 92.7219 19.5917 92.9432 19.83C93.195 18.4168 93.4125 17.1963 93.63 15.9758C94.1271 12.8169 94.5716 9.58229 95.1965 6.44612C95.5809 4.65891 96.8278 3.95325 98.7224 4.42345C101.268 4.94332 103.779 5.6559 106.237 6.29285C106.993 6.49378 107.593 7.1972 107.594 7.92658C107.626 8.86005 107.605 9.7179 107.509 10.6286C107.064 13.8632 106.556 17.0864 106.047 20.3095Z" fill="#FC9A0A"/>
<path d="M61.8316 22.2921C61.0941 22.4671 60.4268 22.887 60.0053 23.5169C59.5487 24.1817 59.6892 24.8116 60.497 25.1265C61.3048 25.4415 62.1126 25.6514 62.9556 25.8264C64.5712 26.2113 66.1165 26.6312 67.416 27.646C70.6121 30.1654 70.9985 34.0846 68.3643 37.1639C66.2921 39.5084 63.5526 40.3133 60.3916 39.7534C57.1604 39.1585 54.6668 37.6188 53.297 34.7845C53.1214 34.3296 52.9809 33.8397 52.9809 33.3498C52.9107 32.5449 53.3321 31.9151 54.2102 31.7401C55.1585 31.5651 56.1419 31.4602 57.1253 31.4252C57.7224 31.3902 58.1087 31.7401 58.3195 32.195C58.6356 32.9299 59.1624 33.5247 59.7946 33.9796C60.7429 34.6795 62.0073 34.7145 62.9907 34.0846C63.9038 33.4897 63.939 32.4749 62.9907 31.9151C62.2882 31.5301 61.5507 31.2152 60.778 31.0053C59.6892 30.6903 58.4951 30.4804 57.4063 30.0955C55.4043 29.3606 53.9643 28.0309 53.4024 26.0713C52.9809 24.6366 53.3673 23.2719 54.0697 21.9422C55.58 19.1428 58.1439 17.5681 61.4102 16.8683C62.7799 16.5883 64.2199 16.5534 65.5897 16.8333C68.1536 17.3582 69.9097 19.0728 70.2609 21.4523C70.3311 21.9422 70.4014 22.4671 70.4365 22.992C70.4014 23.4469 70.3663 23.9018 70.296 24.3567C70.1555 25.1265 69.6638 25.5464 68.8209 25.6514C67.8726 25.7564 66.8892 25.8264 65.9058 25.8614C64.8873 25.8964 64.4307 25.5114 64.2199 24.6016C64.1146 24.2167 64.0794 23.7968 63.939 23.4469C63.6229 22.4321 62.8853 22.0472 61.8316 22.2921Z" fill="#3885FC"/>
</svg>
